#N canvas 0 22 1440 852 10;
#X declare -lib mrpeach;
#X obj 79 730 cnv 15 100 60 empty empty empty 20 12 0 14 -241291 -66577
0;
#X obj 85 750 vsl 10 32 0 1 0 1 \$0-a \$0-a a 0 -8 0 8 -262144 -1 -1
400 0;
#X obj 98 750 vsl 10 32 0 1 0 1 \$0-d \$0-d d 0 -8 0 8 -262144 -1 -1
1000 0;
#X obj 111 750 vsl 10 32 0 1 0 1 \$0-s \$0-s s 0 -8 0 8 -262144 -1
-1 300 0;
#X obj 124 750 vsl 10 32 0 1 0 1 \$0-r \$0-r r 0 -8 0 8 -262144 -1
-1 500 0;
#N canvas 95 141 435 501 env 0;
#X obj 29 5 inlet;
#X obj 29 457 outlet~;
#X obj 29 423 vline~;
#X msg 29 203 0 \, 1 \$1;
#X msg 224 375 0 \$1;
#X obj 254 307 * 500;
#X obj 59 71 * 500;
#X obj 100 253 pack;
#X obj 224 240 random 1000;
#X msg 100 274 \$2 \$1;
#X obj 129 148 * 500;
#X obj 100 189 max 10;
#X obj 29 114 max 10;
#X obj 224 352 max 10;
#X obj 29 25 bang;
#X obj 129 126 receive \$0-d;
#X obj 59 50 receive \$0-a;
#X obj 223 218 delay;
#X obj 254 287 receive \$0-r;
#X obj 224 331 float;
#X obj 224 261 delay;
#X obj 29 92 float;
#X obj 46 139 delay;
#X obj 100 170 float;
#X obj 122 231 receive \$0-s;
#X connect 0 0 14 0;
#X connect 2 0 1 0;
#X connect 3 0 2 0;
#X connect 4 0 2 0;
#X connect 5 0 19 1;
#X connect 6 0 21 1;
#X connect 7 0 9 0;
#X connect 8 0 20 0;
#X connect 9 0 2 0;
#X connect 10 0 23 1;
#X connect 11 0 7 0;
#X connect 11 0 17 0;
#X connect 12 0 3 0;
#X connect 12 0 22 0;
#X connect 13 0 4 0;
#X connect 14 0 21 0;
#X connect 15 0 10 0;
#X connect 16 0 6 0;
#X connect 17 0 8 0;
#X connect 18 0 5 0;
#X connect 19 0 13 0;
#X connect 20 0 19 0;
#X connect 21 0 12 0;
#X connect 22 0 23 0;
#X connect 23 0 11 0;
#X connect 24 0 7 1;
#X restore 29 276 pd env;
#X obj 264 581 output~;
#X obj 131 340 *~;
#X obj 516 32 knob 32 32 100 2000 0 0 freq empty Frequency 0 -8 0 8
-262144 -1 -1 0 1;
#X obj 445 24 r freq;
#X floatatom 448 57 5 0 0 0 - - -;
#X obj 252 539 freeverb~;
#X obj 0 443 hsl 36 24 0 1 0 0 empty empty empty -2 -8 0 10 -262144
-1 -1 2900 1;
#X msg -4 484 wet \$1;
#X obj 58 442 hsl 36 24 0 1 0 0 empty empty empty -2 -8 0 10 -262144
-1 -1 400 1;
#X obj 109 443 hsl 36 24 0 1 0 0 empty empty empty -2 -8 0 10 -262144
-1 -1 3500 1;
#X msg 52 484 dry \$1;
#X msg 105 484 roomsize \$1;
#X obj 313 29 import mrpeach;
#X obj 61 224 mtof;
#X obj 36 8 dumpOSC 12345;
#X obj 41 191 bng 15 250 50 0 empty empty empty 17 7 0 10 -262144 -1
-1;
#X obj 212 693 vsl 12 96 0 1 0 1 \$0-1 \$0-1 1 4 104 2 10 -262131 -123526
-1 9500 0;
#X obj 224 693 vsl 12 96 0 1 0 1 \$0-2 \$0-2 2 4 104 2 10 -225271 -42246
-1 8300 0;
#X obj 237 693 vsl 12 96 0 1 0 1 \$0-3 \$0-3 3 4 104 2 10 -225271 -42246
-1 9500 0;
#X obj 248 693 vsl 12 96 0 1 0 1 \$0-4 \$0-4 4 4 104 2 10 -225271 -42246
-1 3300 0;
#X obj 260 693 vsl 12 96 0 1 0 1 \$0-5 \$0-5 5 4 104 2 10 -225271 -42246
-1 1000 0;
#X obj 272 693 vsl 12 96 0 1 0 1 \$0-6 \$0-6 6 4 104 2 10 -225271 -42246
-1 0 0;
#X obj 284 693 vsl 12 96 0 1 0 1 \$0-7 \$0-7 7 4 104 2 10 -225271 -42246
-1 0 0;
#X obj 296 693 vsl 12 96 0 1 0 1 \$0-8 \$0-8 8 4 104 2 10 -225271 -42246
-1 0 0;
#X obj 308 693 vsl 12 96 0 1 0 1 \$0-9 \$0-9 9 4 104 2 10 -262131 -123526
-1 0 0;
#X obj 320 693 vsl 12 96 0 1 0 1 \$0-10 \$0-10 10 1 104 2 10 -225271
-42246 -1 0 0;
#X obj 332 693 vsl 12 96 0 1 0 1 \$0-11 \$0-11 11 1 104 2 10 -225271
-42246 -1 0 0;
#X obj 344 693 vsl 12 96 0 1 0 1 \$0-12 \$0-12 12 1 104 2 10 -225271
-42246 -1 0 0;
#X obj 356 693 vsl 12 96 0 1 0 1 \$0-13 \$0-13 13 1 104 2 10 -225271
-42246 -1 0 0;
#X obj 368 693 vsl 12 96 0 1 0 1 \$0-14 \$0-14 14 1 104 2 10 -225271
-42246 -1 0 0;
#X obj 380 693 vsl 12 96 0 1 0 1 \$0-15 \$0-15 15 1 104 2 10 -225271
-42246 -1 0 0;
#X obj 392 693 vsl 12 96 0 1 0 1 \$0-16 \$0-16 16 1 104 2 10 -225271
-42246 -1 0 0;
#X obj 412 691 cnv 15 150 106 empty empty empty 20 12 0 14 -260818
-66577 0;
#N canvas 0 22 450 300 (subpatch) 0;
#X array wave 4099 float 0;
#X coords 0 1 4098 -1 140 96 1 0 0;
#X restore 417 696 graph;
#X obj 604 529 r \$0-1;
#X obj 653 528 r \$0-2;
#X obj 702 527 r \$0-3;
#X obj 750 527 r \$0-4;
#X obj 797 527 r \$0-5;
#X obj 845 527 r \$0-6;
#X obj 894 527 r \$0-7;
#X obj 942 527 r \$0-8;
#X obj 991 527 r \$0-9;
#X obj 1038 527 r \$0-10;
#X obj 1093 527 r \$0-11;
#X obj 1148 527 r \$0-12;
#X obj 1202 527 r \$0-13;
#X obj 1255 527 r \$0-14;
#X obj 1308 527 r \$0-15;
#X obj 1361 527 r \$0-16;
#X obj 610 671 symbol \$1;
#X obj 818 739 pack s f f f f f f f f f f f f f f f f;
#X obj 604 550 t b f;
#X obj 798 547 t b f;
#X obj 991 547 t b f;
#X obj 1202 548 t b f;
#X obj 653 549 t b f;
#X obj 845 548 t b f;
#X obj 1038 547 t b f;
#X obj 1255 548 t b f;
#X obj 702 548 t b f;
#X obj 894 548 t b f;
#X obj 1093 547 t b f;
#X obj 1308 548 t b f;
#X obj 750 547 t b f;
#X obj 942 547 t b f;
#X obj 1148 546 t b f;
#X obj 1361 547 t b f;
#X msg 818 762 \; wave sinesum 4096 \$2 \$3 \$4 \$5 \$6 \$7 \$8 \$9
\$10 \$11 \$12 \$13 \$14 \$15 \$16 \$17 \; wave normalize;
#X obj 88 274 tabosc4~ wave;
#X obj 261 270 tabosc4~ wave;
#X obj 37 69 OSCroute /ynode;
#X obj 462 266 tabosc4~ wave;
#X obj 63 192 unpack f;
#X obj 247 189 unpack f;
#X obj 450 185 unpack f;
#X obj 36 125 OSCroute /node0;
#X obj 225 120 OSCroute /node1;
#X obj 423 116 OSCroute /node2;
#X floatatom 116 227 5 0 0 0 - - -;
#X obj 250 223 mtof;
#X obj 452 219 mtof;
#X obj 218 190 bng 15 250 50 0 empty empty empty 17 7 0 10 -262144
-1 -1;
#N canvas 95 141 435 501 env 0;
#X obj 29 5 inlet;
#X obj 29 457 outlet~;
#X obj 29 423 vline~;
#X msg 29 203 0 \, 1 \$1;
#X msg 224 375 0 \$1;
#X obj 254 307 * 500;
#X obj 59 71 * 500;
#X obj 100 253 pack;
#X obj 224 240 random 1000;
#X msg 100 274 \$2 \$1;
#X obj 129 148 * 500;
#X obj 100 189 max 10;
#X obj 29 114 max 10;
#X obj 224 352 max 10;
#X obj 29 25 bang;
#X obj 129 126 receive \$0-d;
#X obj 59 50 receive \$0-a;
#X obj 223 218 delay;
#X obj 254 287 receive \$0-r;
#X obj 224 331 float;
#X obj 224 261 delay;
#X obj 29 92 float;
#X obj 46 139 delay;
#X obj 100 170 float;
#X obj 122 231 receive \$0-s;
#X connect 0 0 14 0;
#X connect 2 0 1 0;
#X connect 3 0 2 0;
#X connect 4 0 2 0;
#X connect 5 0 19 1;
#X connect 6 0 21 1;
#X connect 7 0 9 0;
#X connect 8 0 20 0;
#X connect 9 0 2 0;
#X connect 10 0 23 1;
#X connect 11 0 7 0;
#X connect 11 0 17 0;
#X connect 12 0 3 0;
#X connect 12 0 22 0;
#X connect 13 0 4 0;
#X connect 14 0 21 0;
#X connect 15 0 10 0;
#X connect 16 0 6 0;
#X connect 17 0 8 0;
#X connect 18 0 5 0;
#X connect 19 0 13 0;
#X connect 20 0 19 0;
#X connect 21 0 12 0;
#X connect 22 0 23 0;
#X connect 23 0 11 0;
#X connect 24 0 7 1;
#X restore 210 270 pd env;
#X obj 420 187 bng 15 250 50 0 empty empty empty 17 7 0 10 -262144
-1 -1;
#N canvas 95 141 435 501 env 0;
#X obj 29 5 inlet;
#X obj 29 457 outlet~;
#X obj 29 423 vline~;
#X msg 29 203 0 \, 1 \$1;
#X msg 224 375 0 \$1;
#X obj 254 307 * 500;
#X obj 59 71 * 500;
#X obj 100 253 pack;
#X obj 224 240 random 1000;
#X msg 100 274 \$2 \$1;
#X obj 129 148 * 500;
#X obj 100 189 max 10;
#X obj 29 114 max 10;
#X obj 224 352 max 10;
#X obj 29 25 bang;
#X obj 129 126 receive \$0-d;
#X obj 59 50 receive \$0-a;
#X obj 223 218 delay;
#X obj 254 287 receive \$0-r;
#X obj 224 331 float;
#X obj 224 261 delay;
#X obj 29 92 float;
#X obj 46 139 delay;
#X obj 100 170 float;
#X obj 122 231 receive \$0-s;
#X connect 0 0 14 0;
#X connect 2 0 1 0;
#X connect 3 0 2 0;
#X connect 4 0 2 0;
#X connect 5 0 19 1;
#X connect 6 0 21 1;
#X connect 7 0 9 0;
#X connect 8 0 20 0;
#X connect 9 0 2 0;
#X connect 10 0 23 1;
#X connect 11 0 7 0;
#X connect 11 0 17 0;
#X connect 12 0 3 0;
#X connect 12 0 22 0;
#X connect 13 0 4 0;
#X connect 14 0 21 0;
#X connect 15 0 10 0;
#X connect 16 0 6 0;
#X connect 17 0 8 0;
#X connect 18 0 5 0;
#X connect 19 0 13 0;
#X connect 20 0 19 0;
#X connect 21 0 12 0;
#X connect 22 0 23 0;
#X connect 23 0 11 0;
#X connect 24 0 7 1;
#X restore 407 266 pd env;
#X obj 246 335 *~;
#X obj 456 327 *~;
#X connect 5 0 7 0;
#X connect 7 0 11 0;
#X connect 7 0 11 1;
#X connect 9 0 10 0;
#X connect 11 0 6 0;
#X connect 11 1 6 1;
#X connect 12 0 13 0;
#X connect 13 0 11 0;
#X connect 14 0 16 0;
#X connect 15 0 17 0;
#X connect 16 0 11 0;
#X connect 17 0 11 0;
#X connect 19 0 75 0;
#X connect 20 0 77 0;
#X connect 21 0 5 0;
#X connect 40 0 58 0;
#X connect 41 0 62 0;
#X connect 42 0 66 0;
#X connect 43 0 70 0;
#X connect 44 0 59 0;
#X connect 45 0 63 0;
#X connect 46 0 67 0;
#X connect 47 0 71 0;
#X connect 48 0 60 0;
#X connect 49 0 64 0;
#X connect 50 0 68 0;
#X connect 51 0 72 0;
#X connect 52 0 61 0;
#X connect 53 0 65 0;
#X connect 54 0 69 0;
#X connect 55 0 73 0;
#X connect 56 0 57 0;
#X connect 57 0 74 0;
#X connect 58 0 56 0;
#X connect 58 1 57 1;
#X connect 59 0 56 0;
#X connect 59 1 57 5;
#X connect 60 0 56 0;
#X connect 60 1 57 9;
#X connect 61 0 56 0;
#X connect 61 1 57 13;
#X connect 62 0 56 0;
#X connect 62 1 57 2;
#X connect 63 0 56 0;
#X connect 63 1 57 6;
#X connect 64 0 56 0;
#X connect 64 1 57 10;
#X connect 65 0 56 0;
#X connect 65 1 57 14;
#X connect 66 0 56 0;
#X connect 66 1 57 3;
#X connect 67 0 56 0;
#X connect 67 1 57 7;
#X connect 68 0 56 0;
#X connect 68 1 57 11;
#X connect 69 0 56 0;
#X connect 69 1 57 15;
#X connect 70 0 56 0;
#X connect 70 1 57 4;
#X connect 71 0 56 0;
#X connect 71 1 57 8;
#X connect 72 0 56 0;
#X connect 72 1 57 12;
#X connect 73 0 56 0;
#X connect 73 1 57 16;
#X connect 75 0 7 1;
#X connect 76 0 92 1;
#X connect 77 0 82 0;
#X connect 77 0 83 0;
#X connect 77 0 84 0;
#X connect 78 0 93 1;
#X connect 79 0 19 0;
#X connect 79 0 85 0;
#X connect 80 0 86 0;
#X connect 81 0 87 0;
#X connect 82 0 21 0;
#X connect 82 0 79 0;
#X connect 83 0 80 0;
#X connect 83 0 88 0;
#X connect 84 0 81 0;
#X connect 84 0 90 0;
#X connect 86 0 76 0;
#X connect 87 0 78 0;
#X connect 88 0 89 0;
#X connect 89 0 92 0;
#X connect 90 0 91 0;
#X connect 91 0 93 0;
#X connect 92 0 11 0;
#X connect 92 0 11 1;
#X connect 93 0 11 0;
#X connect 93 0 11 1;
